<?xml version="1.0" encoding="UTF-8" standalone="no"?>
<svg
   xmlns:dc="http://purl.org/dc/elements/1.1/"
   xmlns:cc="http://creativecommons.org/ns#"
   xmlns:rdf="http://www.w3.org/1999/02/22-rdf-syntax-ns#"
   xmlns:svg="http://www.w3.org/2000/svg"
   xmlns="http://www.w3.org/2000/svg"
   xmlns:xlink="http://www.w3.org/1999/xlink"
   xmlns:sodipodi="http://sodipodi.sourceforge.net/DTD/sodipodi-0.dtd"
   xmlns:inkscape="http://www.inkscape.org/namespaces/inkscape"
   width="210mm"
   height="297mm"
   viewBox="0 0 210 297"
   version="1.1"
   id="svg8"
   inkscape:version="1.0.2-2 (e86c870879, 2021-01-15)"
   sodipodi:docname="triange_configurations.svg">
  <defs
     id="defs2">
    <g
       id="g8488">
      <symbol
         overflow="visible"
         id="symbol4643">
        <path
           style="stroke:none;"
           d=""
           id="path2659" />
      </symbol>
      <symbol
         overflow="visible"
         id="symbol2349">
        <path
           style="stroke:none;"
           d="M 2.859375 -6.8125 C 2.859375 -6.8125 2.859375 -6.921875 2.734375 -6.921875 C 2.5 -6.921875 1.78125 -6.84375 1.515625 -6.8125 C 1.4375 -6.8125 1.328125 -6.796875 1.328125 -6.625 C 1.328125 -6.5 1.421875 -6.5 1.5625 -6.5 C 2.046875 -6.5 2.0625 -6.4375 2.0625 -6.328125 L 2.03125 -6.125 L 0.59375 -0.390625 C 0.546875 -0.25 0.546875 -0.234375 0.546875 -0.171875 C 0.546875 0.0625 0.75 0.109375 0.84375 0.109375 C 0.96875 0.109375 1.109375 0.015625 1.171875 -0.09375 C 1.21875 -0.1875 1.671875 -2.03125 1.734375 -2.28125 C 2.078125 -2.25 2.890625 -2.09375 2.890625 -1.4375 C 2.890625 -1.359375 2.890625 -1.328125 2.859375 -1.21875 C 2.84375 -1.109375 2.828125 -0.984375 2.828125 -0.875 C 2.828125 -0.296875 3.21875 0.109375 3.734375 0.109375 C 4.03125 0.109375 4.3125 -0.046875 4.53125 -0.421875 C 4.78125 -0.859375 4.890625 -1.40625 4.890625 -1.421875 C 4.890625 -1.53125 4.796875 -1.53125 4.765625 -1.53125 C 4.671875 -1.53125 4.65625 -1.484375 4.625 -1.34375 C 4.421875 -0.625 4.203125 -0.109375 3.765625 -0.109375 C 3.5625 -0.109375 3.4375 -0.21875 3.4375 -0.578125 C 3.4375 -0.75 3.484375 -0.984375 3.515625 -1.140625 C 3.5625 -1.3125 3.5625 -1.34375 3.5625 -1.453125 C 3.5625 -2.09375 2.9375 -2.375 2.078125 -2.5 C 2.390625 -2.671875 2.71875 -2.984375 2.9375 -3.234375 C 3.421875 -3.765625 3.875 -4.1875 4.359375 -4.1875 C 4.421875 -4.1875 4.4375 -4.1875 4.453125 -4.171875 C 4.578125 -4.15625 4.578125 -4.15625 4.671875 -4.09375 C 4.6875 -4.09375 4.6875 -4.078125 4.703125 -4.0625 C 4.234375 -4.03125 4.140625 -3.640625 4.140625 -3.515625 C 4.140625 -3.359375 4.25 -3.171875 4.515625 -3.171875 C 4.78125 -3.171875 5.0625 -3.390625 5.0625 -3.78125 C 5.0625 -4.078125 4.828125 -4.40625 4.390625 -4.40625 C 4.109375 -4.40625 3.65625 -4.328125 2.9375 -3.53125 C 2.59375 -3.15625 2.203125 -2.75 1.828125 -2.609375 Z M 2.859375 -6.8125 "
           id="path6824" />
      </symbol>
      <symbol
         overflow="visible"
         id="symbol3944">
        <path
           style="stroke:none;"
           d=""
           id="path9738" />
      </symbol>
      <symbol
         overflow="visible"
         id="symbol3717">
        <path
           style="stroke:none;"
           d="M 2.328125 -4.4375 C 2.328125 -4.625 2.328125 -4.625 2.125 -4.625 C 1.671875 -4.1875 1.046875 -4.1875 0.765625 -4.1875 L 0.765625 -3.9375 C 0.921875 -3.9375 1.390625 -3.9375 1.765625 -4.125 L 1.765625 -0.578125 C 1.765625 -0.34375 1.765625 -0.25 1.078125 -0.25 L 0.8125 -0.25 L 0.8125 0 C 0.9375 0 1.796875 -0.03125 2.046875 -0.03125 C 2.265625 -0.03125 3.140625 0 3.296875 0 L 3.296875 -0.25 L 3.03125 -0.25 C 2.328125 -0.25 2.328125 -0.34375 2.328125 -0.578125 Z M 2.328125 -4.4375 "
           id="path7442" />
      </symbol>
    </g>
    <g
       id="g8314">
      <symbol
         overflow="visible"
         id="symbol3255">
        <path
           style="stroke:none;"
           d=""
           id="path999" />
      </symbol>
      <symbol
         overflow="visible"
         id="symbol5783">
        <path
           style="stroke:none;"
           d="M 2.859375 -6.8125 C 2.859375 -6.8125 2.859375 -6.921875 2.734375 -6.921875 C 2.5 -6.921875 1.78125 -6.84375 1.515625 -6.8125 C 1.4375 -6.8125 1.328125 -6.796875 1.328125 -6.625 C 1.328125 -6.5 1.421875 -6.5 1.5625 -6.5 C 2.046875 -6.5 2.0625 -6.4375 2.0625 -6.328125 L 2.03125 -6.125 L 0.59375 -0.390625 C 0.546875 -0.25 0.546875 -0.234375 0.546875 -0.171875 C 0.546875 0.0625 0.75 0.109375 0.84375 0.109375 C 0.96875 0.109375 1.109375 0.015625 1.171875 -0.09375 C 1.21875 -0.1875 1.671875 -2.03125 1.734375 -2.28125 C 2.078125 -2.25 2.890625 -2.09375 2.890625 -1.4375 C 2.890625 -1.359375 2.890625 -1.328125 2.859375 -1.21875 C 2.84375 -1.109375 2.828125 -0.984375 2.828125 -0.875 C 2.828125 -0.296875 3.21875 0.109375 3.734375 0.109375 C 4.03125 0.109375 4.3125 -0.046875 4.53125 -0.421875 C 4.78125 -0.859375 4.890625 -1.40625 4.890625 -1.421875 C 4.890625 -1.53125 4.796875 -1.53125 4.765625 -1.53125 C 4.671875 -1.53125 4.65625 -1.484375 4.625 -1.34375 C 4.421875 -0.625 4.203125 -0.109375 3.765625 -0.109375 C 3.5625 -0.109375 3.4375 -0.21875 3.4375 -0.578125 C 3.4375 -0.75 3.484375 -0.984375 3.515625 -1.140625 C 3.5625 -1.3125 3.5625 -1.34375 3.5625 -1.453125 C 3.5625 -2.09375 2.9375 -2.375 2.078125 -2.5 C 2.390625 -2.671875 2.71875 -2.984375 2.9375 -3.234375 C 3.421875 -3.765625 3.875 -4.1875 4.359375 -4.1875 C 4.421875 -4.1875 4.4375 -4.1875 4.453125 -4.171875 C 4.578125 -4.15625 4.578125 -4.15625 4.671875 -4.09375 C 4.6875 -4.09375 4.6875 -4.078125 4.703125 -4.0625 C 4.234375 -4.03125 4.140625 -3.640625 4.140625 -3.515625 C 4.140625 -3.359375 4.25 -3.171875 4.515625 -3.171875 C 4.78125 -3.171875 5.0625 -3.390625 5.0625 -3.78125 C 5.0625 -4.078125 4.828125 -4.40625 4.390625 -4.40625 C 4.109375 -4.40625 3.65625 -4.328125 2.9375 -3.53125 C 2.59375 -3.15625 2.203125 -2.75 1.828125 -2.609375 Z M 2.859375 -6.8125 "
           id="path3628" />
      </symbol>
      <symbol
         overflow="visible"
         id="symbol5607">
        <path
           style="stroke:none;"
           d=""
           id="path4244" />
      </symbol>
      <symbol
         overflow="visible"
         id="symbol1761">
        <path
           style="stroke:none;"
           d="M 3.515625 -1.265625 L 3.28125 -1.265625 C 3.265625 -1.109375 3.1875 -0.703125 3.09375 -0.640625 C 3.046875 -0.59375 2.515625 -0.59375 2.40625 -0.59375 L 1.125 -0.59375 C 1.859375 -1.234375 2.109375 -1.4375 2.515625 -1.765625 C 3.03125 -2.171875 3.515625 -2.609375 3.515625 -3.265625 C 3.515625 -4.109375 2.78125 -4.625 1.890625 -4.625 C 1.03125 -4.625 0.4375 -4.015625 0.4375 -3.375 C 0.4375 -3.03125 0.734375 -2.984375 0.8125 -2.984375 C 0.96875 -2.984375 1.171875 -3.109375 1.171875 -3.359375 C 1.171875 -3.484375 1.125 -3.734375 0.765625 -3.734375 C 0.984375 -4.21875 1.453125 -4.375 1.78125 -4.375 C 2.484375 -4.375 2.84375 -3.828125 2.84375 -3.265625 C 2.84375 -2.65625 2.40625 -2.1875 2.1875 -1.9375 L 0.515625 -0.265625 C 0.4375 -0.203125 0.4375 -0.1875 0.4375 0 L 3.3125 0 Z M 3.515625 -1.265625 "
           id="path7516" />
      </symbol>
    </g>
    <g
       id="g9984">
      <symbol
         overflow="visible"
         id="symbol680">
        <path
           style="stroke:none;"
           d=""
           id="path2223" />
      </symbol>
      <symbol
         overflow="visible"
         id="symbol637">
        <path
           style="stroke:none;"
           d="M 2.859375 -6.8125 C 2.859375 -6.8125 2.859375 -6.921875 2.734375 -6.921875 C 2.5 -6.921875 1.78125 -6.84375 1.515625 -6.8125 C 1.4375 -6.8125 1.328125 -6.796875 1.328125 -6.625 C 1.328125 -6.5 1.421875 -6.5 1.5625 -6.5 C 2.046875 -6.5 2.0625 -6.4375 2.0625 -6.328125 L 2.03125 -6.125 L 0.59375 -0.390625 C 0.546875 -0.25 0.546875 -0.234375 0.546875 -0.171875 C 0.546875 0.0625 0.75 0.109375 0.84375 0.109375 C 0.96875 0.109375 1.109375 0.015625 1.171875 -0.09375 C 1.21875 -0.1875 1.671875 -2.03125 1.734375 -2.28125 C 2.078125 -2.25 2.890625 -2.09375 2.890625 -1.4375 C 2.890625 -1.359375 2.890625 -1.328125 2.859375 -1.21875 C 2.84375 -1.109375 2.828125 -0.984375 2.828125 -0.875 C 2.828125 -0.296875 3.21875 0.109375 3.734375 0.109375 C 4.03125 0.109375 4.3125 -0.046875 4.53125 -0.421875 C 4.78125 -0.859375 4.890625 -1.40625 4.890625 -1.421875 C 4.890625 -1.53125 4.796875 -1.53125 4.765625 -1.53125 C 4.671875 -1.53125 4.65625 -1.484375 4.625 -1.34375 C 4.421875 -0.625 4.203125 -0.109375 3.765625 -0.109375 C 3.5625 -0.109375 3.4375 -0.21875 3.4375 -0.578125 C 3.4375 -0.75 3.484375 -0.984375 3.515625 -1.140625 C 3.5625 -1.3125 3.5625 -1.34375 3.5625 -1.453125 C 3.5625 -2.09375 2.9375 -2.375 2.078125 -2.5 C 2.390625 -2.671875 2.71875 -2.984375 2.9375 -3.234375 C 3.421875 -3.765625 3.875 -4.1875 4.359375 -4.1875 C 4.421875 -4.1875 4.4375 -4.1875 4.453125 -4.171875 C 4.578125 -4.15625 4.578125 -4.15625 4.671875 -4.09375 C 4.6875 -4.09375 4.6875 -4.078125 4.703125 -4.0625 C 4.234375 -4.03125 4.140625 -3.640625 4.140625 -3.515625 C 4.140625 -3.359375 4.25 -3.171875 4.515625 -3.171875 C 4.78125 -3.171875 5.0625 -3.390625 5.0625 -3.78125 C 5.0625 -4.078125 4.828125 -4.40625 4.390625 -4.40625 C 4.109375 -4.40625 3.65625 -4.328125 2.9375 -3.53125 C 2.59375 -3.15625 2.203125 -2.75 1.828125 -2.609375 Z M 2.859375 -6.8125 "
           id="path8088" />
      </symbol>
      <symbol
         overflow="visible"
         id="symbol9110">
        <path
           style="stroke:none;"
           d=""
           id="path4661" />
      </symbol>
      <symbol
         overflow="visible"
         id="symbol1207">
        <path
           style="stroke:none;"
           d="M 1.90625 -2.328125 C 2.453125 -2.328125 2.84375 -1.953125 2.84375 -1.203125 C 2.84375 -0.34375 2.328125 -0.078125 1.9375 -0.078125 C 1.65625 -0.078125 1.03125 -0.15625 0.75 -0.578125 C 1.078125 -0.578125 1.15625 -0.8125 1.15625 -0.96875 C 1.15625 -1.1875 0.984375 -1.34375 0.765625 -1.34375 C 0.578125 -1.34375 0.375 -1.21875 0.375 -0.9375 C 0.375 -0.28125 1.09375 0.140625 1.9375 0.140625 C 2.90625 0.140625 3.578125 -0.515625 3.578125 -1.203125 C 3.578125 -1.75 3.140625 -2.296875 2.375 -2.453125 C 3.09375 -2.71875 3.359375 -3.234375 3.359375 -3.671875 C 3.359375 -4.21875 2.734375 -4.625 1.953125 -4.625 C 1.1875 -4.625 0.59375 -4.25 0.59375 -3.6875 C 0.59375 -3.453125 0.75 -3.328125 0.953125 -3.328125 C 1.171875 -3.328125 1.3125 -3.484375 1.3125 -3.671875 C 1.3125 -3.875 1.171875 -4.03125 0.953125 -4.046875 C 1.203125 -4.34375 1.671875 -4.421875 1.9375 -4.421875 C 2.25 -4.421875 2.6875 -4.265625 2.6875 -3.671875 C 2.6875 -3.375 2.59375 -3.046875 2.40625 -2.84375 C 2.1875 -2.578125 1.984375 -2.5625 1.640625 -2.53125 C 1.46875 -2.515625 1.453125 -2.515625 1.421875 -2.515625 C 1.40625 -2.515625 1.34375 -2.5 1.34375 -2.421875 C 1.34375 -2.328125 1.40625 -2.328125 1.53125 -2.328125 Z M 1.90625 -2.328125 "
           id="path1676" />
      </symbol>
    </g>
    <g
       id="g3327">
      <symbol
         overflow="visible"
         id="symbol2606">
        <path
           style="stroke:none;"
           d=""
           id="path5002" />
      </symbol>
      <symbol
         overflow="visible"
         id="symbol678">
        <path
           style="stroke:none;"
           d="M 2.859375 -6.8125 C 2.859375 -6.8125 2.859375 -6.921875 2.734375 -6.921875 C 2.5 -6.921875 1.78125 -6.84375 1.515625 -6.8125 C 1.4375 -6.8125 1.328125 -6.796875 1.328125 -6.625 C 1.328125 -6.5 1.421875 -6.5 1.5625 -6.5 C 2.046875 -6.5 2.0625 -6.4375 2.0625 -6.328125 L 2.03125 -6.125 L 0.59375 -0.390625 C 0.546875 -0.25 0.546875 -0.234375 0.546875 -0.171875 C 0.546875 0.0625 0.75 0.109375 0.84375 0.109375 C 0.96875 0.109375 1.109375 0.015625 1.171875 -0.09375 C 1.21875 -0.1875 1.671875 -2.03125 1.734375 -2.28125 C 2.078125 -2.25 2.890625 -2.09375 2.890625 -1.4375 C 2.890625 -1.359375 2.890625 -1.328125 2.859375 -1.21875 C 2.84375 -1.109375 2.828125 -0.984375 2.828125 -0.875 C 2.828125 -0.296875 3.21875 0.109375 3.734375 0.109375 C 4.03125 0.109375 4.3125 -0.046875 4.53125 -0.421875 C 4.78125 -0.859375 4.890625 -1.40625 4.890625 -1.421875 C 4.890625 -1.53125 4.796875 -1.53125 4.765625 -1.53125 C 4.671875 -1.53125 4.65625 -1.484375 4.625 -1.34375 C 4.421875 -0.625 4.203125 -0.109375 3.765625 -0.109375 C 3.5625 -0.109375 3.4375 -0.21875 3.4375 -0.578125 C 3.4375 -0.75 3.484375 -0.984375 3.515625 -1.140625 C 3.5625 -1.3125 3.5625 -1.34375 3.5625 -1.453125 C 3.5625 -2.09375 2.9375 -2.375 2.078125 -2.5 C 2.390625 -2.671875 2.71875 -2.984375 2.9375 -3.234375 C 3.421875 -3.765625 3.875 -4.1875 4.359375 -4.1875 C 4.421875 -4.1875 4.4375 -4.1875 4.453125 -4.171875 C 4.578125 -4.15625 4.578125 -4.15625 4.671875 -4.09375 C 4.6875 -4.09375 4.6875 -4.078125 4.703125 -4.0625 C 4.234375 -4.03125 4.140625 -3.640625 4.140625 -3.515625 C 4.140625 -3.359375 4.25 -3.171875 4.515625 -3.171875 C 4.78125 -3.171875 5.0625 -3.390625 5.0625 -3.78125 C 5.0625 -4.078125 4.828125 -4.40625 4.390625 -4.40625 C 4.109375 -4.40625 3.65625 -4.328125 2.9375 -3.53125 C 2.59375 -3.15625 2.203125 -2.75 1.828125 -2.609375 Z M 2.859375 -6.8125 "
           id="path9504" />
      </symbol>
      <symbol
         overflow="visible"
         id="symbol1149">
        <path
           style="stroke:none;"
           d=""
           id="path8322" />
      </symbol>
      <symbol
         overflow="visible"
         id="symbol1540">
        <path
           style="stroke:none;"
           d="M 2.328125 -4.4375 C 2.328125 -4.625 2.328125 -4.625 2.125 -4.625 C 1.671875 -4.1875 1.046875 -4.1875 0.765625 -4.1875 L 0.765625 -3.9375 C 0.921875 -3.9375 1.390625 -3.9375 1.765625 -4.125 L 1.765625 -0.578125 C 1.765625 -0.34375 1.765625 -0.25 1.078125 -0.25 L 0.8125 -0.25 L 0.8125 0 C 0.9375 0 1.796875 -0.03125 2.046875 -0.03125 C 2.265625 -0.03125 3.140625 0 3.296875 0 L 3.296875 -0.25 L 3.03125 -0.25 C 2.328125 -0.25 2.328125 -0.34375 2.328125 -0.578125 Z M 2.328125 -4.4375 "
           id="path9876" />
      </symbol>
      <symbol
         overflow="visible"
         id="symbol9708">
        <path
           style="stroke:none;"
           d="M 3.515625 -1.265625 L 3.28125 -1.265625 C 3.265625 -1.109375 3.1875 -0.703125 3.09375 -0.640625 C 3.046875 -0.59375 2.515625 -0.59375 2.40625 -0.59375 L 1.125 -0.59375 C 1.859375 -1.234375 2.109375 -1.4375 2.515625 -1.765625 C 3.03125 -2.171875 3.515625 -2.609375 3.515625 -3.265625 C 3.515625 -4.109375 2.78125 -4.625 1.890625 -4.625 C 1.03125 -4.625 0.4375 -4.015625 0.4375 -3.375 C 0.4375 -3.03125 0.734375 -2.984375 0.8125 -2.984375 C 0.96875 -2.984375 1.171875 -3.109375 1.171875 -3.359375 C 1.171875 -3.484375 1.125 -3.734375 0.765625 -3.734375 C 0.984375 -4.21875 1.453125 -4.375 1.78125 -4.375 C 2.484375 -4.375 2.84375 -3.828125 2.84375 -3.265625 C 2.84375 -2.65625 2.40625 -2.1875 2.1875 -1.9375 L 0.515625 -0.265625 C 0.4375 -0.203125 0.4375 -0.1875 0.4375 0 L 3.3125 0 Z M 3.515625 -1.265625 "
           id="path7875" />
      </symbol>
      <symbol
         overflow="visible"
         id="symbol3049">
        <path
           style="stroke:none;"
           d="M 1.90625 -2.328125 C 2.453125 -2.328125 2.84375 -1.953125 2.84375 -1.203125 C 2.84375 -0.34375 2.328125 -0.078125 1.9375 -0.078125 C 1.65625 -0.078125 1.03125 -0.15625 0.75 -0.578125 C 1.078125 -0.578125 1.15625 -0.8125 1.15625 -0.96875 C 1.15625 -1.1875 0.984375 -1.34375 0.765625 -1.34375 C 0.578125 -1.34375 0.375 -1.21875 0.375 -0.9375 C 0.375 -0.28125 1.09375 0.140625 1.9375 0.140625 C 2.90625 0.140625 3.578125 -0.515625 3.578125 -1.203125 C 3.578125 -1.75 3.140625 -2.296875 2.375 -2.453125 C 3.09375 -2.71875 3.359375 -3.234375 3.359375 -3.671875 C 3.359375 -4.21875 2.734375 -4.625 1.953125 -4.625 C 1.1875 -4.625 0.59375 -4.25 0.59375 -3.6875 C 0.59375 -3.453125 0.75 -3.328125 0.953125 -3.328125 C 1.171875 -3.328125 1.3125 -3.484375 1.3125 -3.671875 C 1.3125 -3.875 1.171875 -4.03125 0.953125 -4.046875 C 1.203125 -4.34375 1.671875 -4.421875 1.9375 -4.421875 C 2.25 -4.421875 2.6875 -4.265625 2.6875 -3.671875 C 2.6875 -3.375 2.59375 -3.046875 2.40625 -2.84375 C 2.1875 -2.578125 1.984375 -2.5625 1.640625 -2.53125 C 1.46875 -2.515625 1.453125 -2.515625 1.421875 -2.515625 C 1.40625 -2.515625 1.34375 -2.5 1.34375 -2.421875 C 1.34375 -2.328125 1.40625 -2.328125 1.53125 -2.328125 Z M 1.90625 -2.328125 "
           id="path2245" />
      </symbol>
      <symbol
         overflow="visible"
         id="symbol7165">
        <path
           style="stroke:none;"
           d=""
           id="path1058" />
      </symbol>
      <symbol
         overflow="visible"
         id="symbol1313">
        <path
           style="stroke:none;"
           d="M 7.203125 -4.5 C 7.203125 -4.71875 7.125 -4.8125 7.0625 -4.8125 C 7.015625 -4.8125 6.921875 -4.765625 6.921875 -4.53125 C 6.875 -3.84375 6.1875 -3.4375 5.53125 -3.4375 C 4.953125 -3.4375 4.453125 -3.75 3.9375 -4.09375 C 3.40625 -4.453125 2.859375 -4.8125 2.21875 -4.8125 C 1.28125 -4.8125 0.546875 -4.109375 0.546875 -3.1875 C 0.546875 -2.96875 0.625 -2.890625 0.6875 -2.890625 C 0.78125 -2.890625 0.828125 -3.078125 0.828125 -3.125 C 0.875 -3.953125 1.6875 -4.25 2.21875 -4.25 C 2.796875 -4.25 3.296875 -3.953125 3.8125 -3.59375 C 4.34375 -3.234375 4.890625 -2.875 5.53125 -2.875 C 6.453125 -2.875 7.203125 -3.59375 7.203125 -4.5 Z M 7.203125 -2.171875 C 7.203125 -2.46875 7.078125 -2.484375 7.0625 -2.484375 C 7.015625 -2.484375 6.921875 -2.4375 6.921875 -2.21875 C 6.875 -1.53125 6.1875 -1.109375 5.53125 -1.109375 C 4.953125 -1.109375 4.453125 -1.421875 3.9375 -1.78125 C 3.40625 -2.140625 2.859375 -2.5 2.21875 -2.5 C 1.28125 -2.5 0.546875 -1.78125 0.546875 -0.875 C 0.546875 -0.640625 0.625 -0.5625 0.6875 -0.5625 C 0.78125 -0.5625 0.828125 -0.75 0.828125 -0.796875 C 0.875 -1.640625 1.6875 -1.9375 2.21875 -1.9375 C 2.796875 -1.9375 3.296875 -1.625 3.8125 -1.28125 C 4.34375 -0.921875 4.890625 -0.5625 5.53125 -0.5625 C 6.484375 -0.5625 7.203125 -1.296875 7.203125 -2.171875 Z M 7.203125 -2.171875 "
           id="path5564" />
      </symbol>
      <symbol
         overflow="visible"
         id="symbol418">
        <path
           style="stroke:none;"
           d="M 6.1875 -2.265625 C 6.296875 -2.34375 6.375 -2.375 6.375 -2.5 C 6.375 -2.609375 6.296875 -2.640625 6.1875 -2.71875 L 0.921875 -5.578125 C 0.890625 -5.609375 0.8125 -5.640625 0.75 -5.640625 C 0.65625 -5.640625 0.546875 -5.578125 0.546875 -5.4375 C 0.546875 -5.328125 0.625 -5.296875 0.75 -5.21875 L 5.75 -2.5 L 0.75 0.234375 C 0.625 0.3125 0.546875 0.34375 0.546875 0.453125 C 0.546875 0.65625 0.734375 0.65625 0.8125 0.65625 Z M 9.21875 -2.265625 C 9.34375 -2.34375 9.40625 -2.375 9.40625 -2.5 C 9.40625 -2.609375 9.34375 -2.640625 9.21875 -2.71875 L 3.96875 -5.578125 C 3.921875 -5.609375 3.859375 -5.640625 3.78125 -5.640625 C 3.703125 -5.640625 3.59375 -5.578125 3.59375 -5.4375 C 3.59375 -5.328125 3.671875 -5.296875 3.78125 -5.21875 L 8.796875 -2.5 L 3.78125 0.234375 C 3.671875 0.3125 3.59375 0.34375 3.59375 0.453125 C 3.59375 0.65625 3.78125 0.65625 3.84375 0.65625 Z M 9.21875 -2.265625 "
           id="path5371" />
      </symbol>
    </g>
    <g
       id="g8316">
      <symbol
         overflow="visible"
         id="symbol5799">
        <path
           style="stroke:none;"
           d=""
           id="path3290" />
      </symbol>
      <symbol
         overflow="visible"
         id="symbol8484">
        <path
           style="stroke:none;"
           d="M 2.859375 -6.8125 C 2.859375 -6.8125 2.859375 -6.921875 2.734375 -6.921875 C 2.5 -6.921875 1.78125 -6.84375 1.515625 -6.8125 C 1.4375 -6.8125 1.328125 -6.796875 1.328125 -6.625 C 1.328125 -6.5 1.421875 -6.5 1.5625 -6.5 C 2.046875 -6.5 2.0625 -6.4375 2.0625 -6.328125 L 2.03125 -6.125 L 0.59375 -0.390625 C 0.546875 -0.25 0.546875 -0.234375 0.546875 -0.171875 C 0.546875 0.0625 0.75 0.109375 0.84375 0.109375 C 0.96875 0.109375 1.109375 0.015625 1.171875 -0.09375 C 1.21875 -0.1875 1.671875 -2.03125 1.734375 -2.28125 C 2.078125 -2.25 2.890625 -2.09375 2.890625 -1.4375 C 2.890625 -1.359375 2.890625 -1.328125 2.859375 -1.21875 C 2.84375 -1.109375 2.828125 -0.984375 2.828125 -0.875 C 2.828125 -0.296875 3.21875 0.109375 3.734375 0.109375 C 4.03125 0.109375 4.3125 -0.046875 4.53125 -0.421875 C 4.78125 -0.859375 4.890625 -1.40625 4.890625 -1.421875 C 4.890625 -1.53125 4.796875 -1.53125 4.765625 -1.53125 C 4.671875 -1.53125 4.65625 -1.484375 4.625 -1.34375 C 4.421875 -0.625 4.203125 -0.109375 3.765625 -0.109375 C 3.5625 -0.109375 3.4375 -0.21875 3.4375 -0.578125 C 3.4375 -0.75 3.484375 -0.984375 3.515625 -1.140625 C 3.5625 -1.3125 3.5625 -1.34375 3.5625 -1.453125 C 3.5625 -2.09375 2.9375 -2.375 2.078125 -2.5 C 2.390625 -2.671875 2.71875 -2.984375 2.9375 -3.234375 C 3.421875 -3.765625 3.875 -4.1875 4.359375 -4.1875 C 4.421875 -4.1875 4.4375 -4.1875 4.453125 -4.171875 C 4.578125 -4.15625 4.578125 -4.15625 4.671875 -4.09375 C 4.6875 -4.09375 4.6875 -4.078125 4.703125 -4.0625 C 4.234375 -4.03125 4.140625 -3.640625 4.140625 -3.515625 C 4.140625 -3.359375 4.25 -3.171875 4.515625 -3.171875 C 4.78125 -3.171875 5.0625 -3.390625 5.0625 -3.78125 C 5.0625 -4.078125 4.828125 -4.40625 4.390625 -4.40625 C 4.109375 -4.40625 3.65625 -4.328125 2.9375 -3.53125 C 2.59375 -3.15625 2.203125 -2.75 1.828125 -2.609375 Z M 2.859375 -6.8125 "
           id="path5863" />
      </symbol>
      <symbol
         overflow="visible"
         id="symbol2835">
        <path
           style="stroke:none;"
           d=""
           id="path6127" />
      </symbol>
      <symbol
         overflow="visible"
         id="symbol590">
        <path
           style="stroke:none;"
           d="M 2.328125 -4.4375 C 2.328125 -4.625 2.328125 -4.625 2.125 -4.625 C 1.671875 -4.1875 1.046875 -4.1875 0.765625 -4.1875 L 0.765625 -3.9375 C 0.921875 -3.9375 1.390625 -3.9375 1.765625 -4.125 L 1.765625 -0.578125 C 1.765625 -0.34375 1.765625 -0.25 1.078125 -0.25 L 0.8125 -0.25 L 0.8125 0 C 0.9375 0 1.796875 -0.03125 2.046875 -0.03125 C 2.265625 -0.03125 3.140625 0 3.296875 0 L 3.296875 -0.25 L 3.03125 -0.25 C 2.328125 -0.25 2.328125 -0.34375 2.328125 -0.578125 Z M 2.328125 -4.4375 "
           id="path6701" />
      </symbol>
      <symbol
         overflow="visible"
         id="symbol9744">
        <path
           style="stroke:none;"
           d="M 3.515625 -1.265625 L 3.28125 -1.265625 C 3.265625 -1.109375 3.1875 -0.703125 3.09375 -0.640625 C 3.046875 -0.59375 2.515625 -0.59375 2.40625 -0.59375 L 1.125 -0.59375 C 1.859375 -1.234375 2.109375 -1.4375 2.515625 -1.765625 C 3.03125 -2.171875 3.515625 -2.609375 3.515625 -3.265625 C 3.515625 -4.109375 2.78125 -4.625 1.890625 -4.625 C 1.03125 -4.625 0.4375 -4.015625 0.4375 -3.375 C 0.4375 -3.03125 0.734375 -2.984375 0.8125 -2.984375 C 0.96875 -2.984375 1.171875 -3.109375 1.171875 -3.359375 C 1.171875 -3.484375 1.125 -3.734375 0.765625 -3.734375 C 0.984375 -4.21875 1.453125 -4.375 1.78125 -4.375 C 2.484375 -4.375 2.84375 -3.828125 2.84375 -3.265625 C 2.84375 -2.65625 2.40625 -2.1875 2.1875 -1.9375 L 0.515625 -0.265625 C 0.4375 -0.203125 0.4375 -0.1875 0.4375 0 L 3.3125 0 Z M 3.515625 -1.265625 "
           id="path6570" />
      </symbol>
      <symbol
         overflow="visible"
         id="symbol5134">
        <path
           style="stroke:none;"
           d="M 1.90625 -2.328125 C 2.453125 -2.328125 2.84375 -1.953125 2.84375 -1.203125 C 2.84375 -0.34375 2.328125 -0.078125 1.9375 -0.078125 C 1.65625 -0.078125 1.03125 -0.15625 0.75 -0.578125 C 1.078125 -0.578125 1.15625 -0.8125 1.15625 -0.96875 C 1.15625 -1.1875 0.984375 -1.34375 0.765625 -1.34375 C 0.578125 -1.34375 0.375 -1.21875 0.375 -0.9375 C 0.375 -0.28125 1.09375 0.140625 1.9375 0.140625 C 2.90625 0.140625 3.578125 -0.515625 3.578125 -1.203125 C 3.578125 -1.75 3.140625 -2.296875 2.375 -2.453125 C 3.09375 -2.71875 3.359375 -3.234375 3.359375 -3.671875 C 3.359375 -4.21875 2.734375 -4.625 1.953125 -4.625 C 1.1875 -4.625 0.59375 -4.25 0.59375 -3.6875 C 0.59375 -3.453125 0.75 -3.328125 0.953125 -3.328125 C 1.171875 -3.328125 1.3125 -3.484375 1.3125 -3.671875 C 1.3125 -3.875 1.171875 -4.03125 0.953125 -4.046875 C 1.203125 -4.34375 1.671875 -4.421875 1.9375 -4.421875 C 2.25 -4.421875 2.6875 -4.265625 2.6875 -3.671875 C 2.6875 -3.375 2.59375 -3.046875 2.40625 -2.84375 C 2.1875 -2.578125 1.984375 -2.5625 1.640625 -2.53125 C 1.46875 -2.515625 1.453125 -2.515625 1.421875 -2.515625 C 1.40625 -2.515625 1.34375 -2.5 1.34375 -2.421875 C 1.34375 -2.328125 1.40625 -2.328125 1.53125 -2.328125 Z M 1.90625 -2.328125 "
           id="path5556" />
      </symbol>
      <symbol
         overflow="visible"
         id="symbol4635">
        <path
           style="stroke:none;"
           d=""
           id="path7438" />
      </symbol>
      <symbol
         overflow="visible"
         id="symbol5512">
        <path
           style="stroke:none;"
           d="M 7.203125 -4.5 C 7.203125 -4.71875 7.125 -4.8125 7.0625 -4.8125 C 7.015625 -4.8125 6.921875 -4.765625 6.921875 -4.53125 C 6.875 -3.84375 6.1875 -3.4375 5.53125 -3.4375 C 4.953125 -3.4375 4.453125 -3.75 3.9375 -4.09375 C 3.40625 -4.453125 2.859375 -4.8125 2.21875 -4.8125 C 1.28125 -4.8125 0.546875 -4.109375 0.546875 -3.1875 C 0.546875 -2.96875 0.625 -2.890625 0.6875 -2.890625 C 0.78125 -2.890625 0.828125 -3.078125 0.828125 -3.125 C 0.875 -3.953125 1.6875 -4.25 2.21875 -4.25 C 2.796875 -4.25 3.296875 -3.953125 3.8125 -3.59375 C 4.34375 -3.234375 4.890625 -2.875 5.53125 -2.875 C 6.453125 -2.875 7.203125 -3.59375 7.203125 -4.5 Z M 7.203125 -2.171875 C 7.203125 -2.46875 7.078125 -2.484375 7.0625 -2.484375 C 7.015625 -2.484375 6.921875 -2.4375 6.921875 -2.21875 C 6.875 -1.53125 6.1875 -1.109375 5.53125 -1.109375 C 4.953125 -1.109375 4.453125 -1.421875 3.9375 -1.78125 C 3.40625 -2.140625 2.859375 -2.5 2.21875 -2.5 C 1.28125 -2.5 0.546875 -1.78125 0.546875 -0.875 C 0.546875 -0.640625 0.625 -0.5625 0.6875 -0.5625 C 0.78125 -0.5625 0.828125 -0.75 0.828125 -0.796875 C 0.875 -1.640625 1.6875 -1.9375 2.21875 -1.9375 C 2.796875 -1.9375 3.296875 -1.625 3.8125 -1.28125 C 4.34375 -0.921875 4.890625 -0.5625 5.53125 -0.5625 C 6.484375 -0.5625 7.203125 -1.296875 7.203125 -2.171875 Z M 7.203125 -2.171875 "
           id="path4799" />
      </symbol>
    </g>
    <g
       id="g5986">
      <symbol
         overflow="visible"
         id="symbol3261">
        <path
           style="stroke:none;"
           d=""
           id="path8670" />
      </symbol>
      <symbol
         overflow="visible"
         id="symbol2132">
        <path
           style="stroke:none;"
           d="M 2.859375 -6.8125 C 2.859375 -6.8125 2.859375 -6.921875 2.734375 -6.921875 C 2.5 -6.921875 1.78125 -6.84375 1.515625 -6.8125 C 1.4375 -6.8125 1.328125 -6.796875 1.328125 -6.625 C 1.328125 -6.5 1.421875 -6.5 1.5625 -6.5 C 2.046875 -6.5 2.0625 -6.4375 2.0625 -6.328125 L 2.03125 -6.125 L 0.59375 -0.390625 C 0.546875 -0.25 0.546875 -0.234375 0.546875 -0.171875 C 0.546875 0.0625 0.75 0.109375 0.84375 0.109375 C 0.96875 0.109375 1.109375 0.015625 1.171875 -0.09375 C 1.21875 -0.1875 1.671875 -2.03125 1.734375 -2.28125 C 2.078125 -2.25 2.890625 -2.09375 2.890625 -1.4375 C 2.890625 -1.359375 2.890625 -1.328125 2.859375 -1.21875 C 2.84375 -1.109375 2.828125 -0.984375 2.828125 -0.875 C 2.828125 -0.296875 3.21875 0.109375 3.734375 0.109375 C 4.03125 0.109375 4.3125 -0.046875 4.53125 -0.421875 C 4.78125 -0.859375 4.890625 -1.40625 4.890625 -1.421875 C 4.890625 -1.53125 4.796875 -1.53125 4.765625 -1.53125 C 4.671875 -1.53125 4.65625 -1.484375 4.625 -1.34375 C 4.421875 -0.625 4.203125 -0.109375 3.765625 -0.109375 C 3.5625 -0.109375 3.4375 -0.21875 3.4375 -0.578125 C 3.4375 -0.75 3.484375 -0.984375 3.515625 -1.140625 C 3.5625 -1.3125 3.5625 -1.34375 3.5625 -1.453125 C 3.5625 -2.09375 2.9375 -2.375 2.078125 -2.5 C 2.390625 -2.671875 2.71875 -2.984375 2.9375 -3.234375 C 3.421875 -3.765625 3.875 -4.1875 4.359375 -4.1875 C 4.421875 -4.1875 4.4375 -4.1875 4.453125 -4.171875 C 4.578125 -4.15625 4.578125 -4.15625 4.671875 -4.09375 C 4.6875 -4.09375 4.6875 -4.078125 4.703125 -4.0625 C 4.234375 -4.03125 4.140625 -3.640625 4.140625 -3.515625 C 4.140625 -3.359375 4.25 -3.171875 4.515625 -3.171875 C 4.78125 -3.171875 5.0625 -3.390625 5.0625 -3.78125 C 5.0625 -4.078125 4.828125 -4.40625 4.390625 -4.40625 C 4.109375 -4.40625 3.65625 -4.328125 2.9375 -3.53125 C 2.59375 -3.15625 2.203125 -2.75 1.828125 -2.609375 Z M 2.859375 -6.8125 "
           id="path1764" />
      </symbol>
      <symbol
         overflow="visible"
         id="symbol7882">
        <path
           style="stroke:none;"
           d=""
           id="path2260" />
      </symbol>
      <symbol
         overflow="visible"
         id="symbol8404">
        <path
           style="stroke:none;"
           d="M 2.328125 -4.4375 C 2.328125 -4.625 2.328125 -4.625 2.125 -4.625 C 1.671875 -4.1875 1.046875 -4.1875 0.765625 -4.1875 L 0.765625 -3.9375 C 0.921875 -3.9375 1.390625 -3.9375 1.765625 -4.125 L 1.765625 -0.578125 C 1.765625 -0.34375 1.765625 -0.25 1.078125 -0.25 L 0.8125 -0.25 L 0.8125 0 C 0.9375 0 1.796875 -0.03125 2.046875 -0.03125 C 2.265625 -0.03125 3.140625 0 3.296875 0 L 3.296875 -0.25 L 3.03125 -0.25 C 2.328125 -0.25 2.328125 -0.34375 2.328125 -0.578125 Z M 2.328125 -4.4375 "
           id="path9186" />
      </symbol>
      <symbol
         overflow="visible"
         id="symbol3852">
        <path
           style="stroke:none;"
           d="M 3.515625 -1.265625 L 3.28125 -1.265625 C 3.265625 -1.109375 3.1875 -0.703125 3.09375 -0.640625 C 3.046875 -0.59375 2.515625 -0.59375 2.40625 -0.59375 L 1.125 -0.59375 C 1.859375 -1.234375 2.109375 -1.4375 2.515625 -1.765625 C 3.03125 -2.171875 3.515625 -2.609375 3.515625 -3.265625 C 3.515625 -4.109375 2.78125 -4.625 1.890625 -4.625 C 1.03125 -4.625 0.4375 -4.015625 0.4375 -3.375 C 0.4375 -3.03125 0.734375 -2.984375 0.8125 -2.984375 C 0.96875 -2.984375 1.171875 -3.109375 1.171875 -3.359375 C 1.171875 -3.484375 1.125 -3.734375 0.765625 -3.734375 C 0.984375 -4.21875 1.453125 -4.375 1.78125 -4.375 C 2.484375 -4.375 2.84375 -3.828125 2.84375 -3.265625 C 2.84375 -2.65625 2.40625 -2.1875 2.1875 -1.9375 L 0.515625 -0.265625 C 0.4375 -0.203125 0.4375 -0.1875 0.4375 0 L 3.3125 0 Z M 3.515625 -1.265625 "
           id="path1154" />
      </symbol>
      <symbol
         overflow="visible"
         id="symbol1220">
        <path
           style="stroke:none;"
           d="M 1.90625 -2.328125 C 2.453125 -2.328125 2.84375 -1.953125 2.84375 -1.203125 C 2.84375 -0.34375 2.328125 -0.078125 1.9375 -0.078125 C 1.65625 -0.078125 1.03125 -0.15625 0.75 -0.578125 C 1.078125 -0.578125 1.15625 -0.8125 1.15625 -0.96875 C 1.15625 -1.1875 0.984375 -1.34375 0.765625 -1.34375 C 0.578125 -1.34375 0.375 -1.21875 0.375 -0.9375 C 0.375 -0.28125 1.09375 0.140625 1.9375 0.140625 C 2.90625 0.140625 3.578125 -0.515625 3.578125 -1.203125 C 3.578125 -1.75 3.140625 -2.296875 2.375 -2.453125 C 3.09375 -2.71875 3.359375 -3.234375 3.359375 -3.671875 C 3.359375 -4.21875 2.734375 -4.625 1.953125 -4.625 C 1.1875 -4.625 0.59375 -4.25 0.59375 -3.6875 C 0.59375 -3.453125 0.75 -3.328125 0.953125 -3.328125 C 1.171875 -3.328125 1.3125 -3.484375 1.3125 -3.671875 C 1.3125 -3.875 1.171875 -4.03125 0.953125 -4.046875 C 1.203125 -4.34375 1.671875 -4.421875 1.9375 -4.421875 C 2.25 -4.421875 2.6875 -4.265625 2.6875 -3.671875 C 2.6875 -3.375 2.59375 -3.046875 2.40625 -2.84375 C 2.1875 -2.578125 1.984375 -2.5625 1.640625 -2.53125 C 1.46875 -2.515625 1.453125 -2.515625 1.421875 -2.515625 C 1.40625 -2.515625 1.34375 -2.5 1.34375 -2.421875 C 1.34375 -2.328125 1.40625 -2.328125 1.53125 -2.328125 Z M 1.90625 -2.328125 "
           id="path3555" />
      </symbol>
      <symbol
         overflow="visible"
         id="symbol108">
        <path
           style="stroke:none;"
           d=""
           id="path4866" />
      </symbol>
      <symbol
         overflow="visible"
         id="symbol1097">
        <path
           style="stroke:none;"
           d="M 4.078125 -2.296875 L 6.859375 -2.296875 C 7 -2.296875 7.1875 -2.296875 7.1875 -2.5 C 7.1875 -2.6875 7 -2.6875 6.859375 -2.6875 L 4.078125 -2.6875 L 4.078125 -5.484375 C 4.078125 -5.625 4.078125 -5.8125 3.875 -5.8125 C 3.671875 -5.8125 3.671875 -5.625 3.671875 -5.484375 L 3.671875 -2.6875 L 0.890625 -2.6875 C 0.75 -2.6875 0.5625 -2.6875 0.5625 -2.5 C 0.5625 -2.296875 0.75 -2.296875 0.890625 -2.296875 L 3.671875 -2.296875 L 3.671875 0.5 C 3.671875 0.640625 3.671875 0.828125 3.875 0.828125 C 4.078125 0.828125 4.078125 0.640625 4.078125 0.5 Z M 4.078125 -2.296875 "
           id="path8938" />
      </symbol>
      <symbol
         overflow="visible"
         id="symbol5339">
        <path
           style="stroke:none;"
           d=""
           id="path3572" />
      </symbol>
      <symbol
         overflow="visible"
         id="symbol3462">
        <path
           style="stroke:none;"
           d="M 7.203125 -4.5 C 7.203125 -4.71875 7.125 -4.8125 7.0625 -4.8125 C 7.015625 -4.8125 6.921875 -4.765625 6.921875 -4.53125 C 6.875 -3.84375 6.1875 -3.4375 5.53125 -3.4375 C 4.953125 -3.4375 4.453125 -3.75 3.9375 -4.09375 C 3.40625 -4.453125 2.859375 -4.8125 2.21875 -4.8125 C 1.28125 -4.8125 0.546875 -4.109375 0.546875 -3.1875 C 0.546875 -2.96875 0.625 -2.890625 0.6875 -2.890625 C 0.78125 -2.890625 0.828125 -3.078125 0.828125 -3.125 C 0.875 -3.953125 1.6875 -4.25 2.21875 -4.25 C 2.796875 -4.25 3.296875 -3.953125 3.8125 -3.59375 C 4.34375 -3.234375 4.890625 -2.875 5.53125 -2.875 C 6.453125 -2.875 7.203125 -3.59375 7.203125 -4.5 Z M 7.203125 -2.171875 C 7.203125 -2.46875 7.078125 -2.484375 7.0625 -2.484375 C 7.015625 -2.484375 6.921875 -2.4375 6.921875 -2.21875 C 6.875 -1.53125 6.1875 -1.109375 5.53125 -1.109375 C 4.953125 -1.109375 4.453125 -1.421875 3.9375 -1.78125 C 3.40625 -2.140625 2.859375 -2.5 2.21875 -2.5 C 1.28125 -2.5 0.546875 -1.78125 0.546875 -0.875 C 0.546875 -0.640625 0.625 -0.5625 0.6875 -0.5625 C 0.78125 -0.5625 0.828125 -0.75 0.828125 -0.796875 C 0.875 -1.640625 1.6875 -1.9375 2.21875 -1.9375 C 2.796875 -1.9375 3.296875 -1.625 3.8125 -1.28125 C 4.34375 -0.921875 4.890625 -0.5625 5.53125 -0.5625 C 6.484375 -0.5625 7.203125 -1.296875 7.203125 -2.171875 Z M 7.203125 -2.171875 "
           id="path9766" />
      </symbol>
    </g>
  </defs>
  <sodipodi:namedview
     id="base"
     pagecolor="#ffffff"
     bordercolor="#666666"
     borderopacity="1.0"
     inkscape:pageopacity="0.0"
     inkscape:pageshadow="2"
     inkscape:zoom="0.98994949"
     inkscape:cx="-99.23946"
     inkscape:cy="102.18962"
     inkscape:document-units="mm"
     inkscape:current-layer="layer1"
     inkscape:document-rotation="0"
     showgrid="false"
     inkscape:window-width="2560"
     inkscape:window-height="1566"
     inkscape:window-x="-11"
     inkscape:window-y="-11"
     inkscape:window-maximized="1" />
  <metadata
     id="metadata5">
    <rdf:RDF>
      <cc:Work
         rdf:about="">
        <dc:format>image/svg+xml</dc:format>
        <dc:type
           rdf:resource="http://purl.org/dc/dcmitype/StillImage" />
        <dc:title></dc:title>
      </cc:Work>
    </rdf:RDF>
  </metadata>
  <g
     inkscape:label="Layer 1"
     inkscape:groupmode="layer"
     id="layer1">
    <path
       style="fill:none;stroke:#000000;stroke-width:0.264583px;stroke-linecap:butt;stroke-linejoin:miter;stroke-opacity:1;fill-opacity:1"
       d="M 19.074872,56.042365 24.959351,24.183099"
       id="path855" />
    <path
       style="fill:none;stroke:#000000;stroke-width:0.264583px;stroke-linecap:butt;stroke-linejoin:miter;stroke-opacity:1;fill-opacity:1"
       d="M 24.959351,24.183099 30.84383,56.042365"
       id="path857" />
    <path
       style="fill:none;stroke:#000000;stroke-width:0.264583px;stroke-linecap:butt;stroke-linejoin:miter;stroke-opacity:1;fill-opacity:1"
       d="M 19.074872,56.042365 H 30.84383"
       id="path833-3" />
    <path
       style="fill:none;stroke:#000000;stroke-width:0.264584px;stroke-linecap:butt;stroke-linejoin:miter;stroke-opacity:1"
       d="m 65.619788,56.093079 10.67238,-19.75175"
       id="path855-3" />
    <path
       style="fill:none;stroke:#000000;stroke-width:0.264584px;stroke-linecap:butt;stroke-linejoin:miter;stroke-opacity:1"
       d="m 76.292168,36.341329 10.67238,19.75175"
       id="path857-9" />
    <path
       style="fill:none;stroke:#000000;stroke-width:0.264584px;stroke-linecap:butt;stroke-linejoin:miter;stroke-opacity:1"
       d="m 65.619788,56.093079 h 21.34476"
       id="path833-3-5" />
    <path
       style="fill:none;stroke:#000000;stroke-width:0.264583px;stroke-linecap:butt;stroke-linejoin:miter;stroke-opacity:1"
       d="m 110.97037,56.167152 16.63436,-6.811586"
       id="path855-3-5" />
    <path
       style="fill:none;stroke:#000000;stroke-width:0.264583px;stroke-linecap:butt;stroke-linejoin:miter;stroke-opacity:1"
       d="m 127.60473,49.355566 16.63436,6.811586"
       id="path857-9-6" />
    <path
       style="fill:none;stroke:#000000;stroke-width:0.264583px;stroke-linecap:butt;stroke-linejoin:miter;stroke-opacity:1"
       d="m 110.97037,56.167152 h 33.26872"
       id="path833-3-5-6" />
    <text
       xml:space="preserve"
       style="font-style:normal;font-variant:normal;font-weight:normal;font-stretch:normal;font-size:5.43248px;line-height:1.25;font-family:'CMU Serif';-inkscape-font-specification:'CMU Serif, Normal';font-variant-ligatures:normal;font-variant-caps:normal;font-variant-numeric:normal;font-variant-east-asian:normal;fill:#000064;fill-opacity:1;stroke:none;stroke-width:0.264583"
       x="14.973585"
       y="68.199501"
       id="text1024"><tspan
         sodipodi:role="line"
         id="tspan1022"
         x="14.973585"
         y="68.199501"
         style="font-style:normal;font-variant:normal;font-weight:normal;font-stretch:normal;font-size:5.43248px;font-family:'CMU Serif';-inkscape-font-specification:'CMU Serif, Normal';font-variant-ligatures:normal;font-variant-caps:normal;font-variant-numeric:normal;font-variant-east-asian:normal;fill:#000064;fill-opacity:1;stroke-width:0.264583">Squeezed</tspan></text>
    <text
       xml:space="preserve"
       style="font-style:normal;font-variant:normal;font-weight:normal;font-stretch:normal;font-size:5.43248px;line-height:1.25;font-family:'CMU Serif';-inkscape-font-specification:'CMU Serif, Normal';font-variant-ligatures:normal;font-variant-caps:normal;font-variant-numeric:normal;font-variant-east-asian:normal;fill:#006400;fill-opacity:1;stroke:none;stroke-width:0.264583"
       x="117.7831"
       y="69.191566"
       id="text1028"><tspan
         sodipodi:role="line"
         id="tspan1026"
         x="117.7831"
         y="69.191566"
         style="font-style:normal;font-variant:normal;font-weight:normal;font-stretch:normal;font-size:5.43248px;font-family:'CMU Serif';-inkscape-font-specification:'CMU Serif, Normal';font-variant-ligatures:normal;font-variant-caps:normal;font-variant-numeric:normal;font-variant-east-asian:normal;fill:#006400;fill-opacity:1;stroke-width:0.264583">Flattened</tspan></text>
    <text
       xml:space="preserve"
       style="font-style:normal;font-variant:normal;font-weight:normal;font-stretch:normal;font-size:5.43248px;line-height:1.25;font-family:'CMU Serif';-inkscape-font-specification:'CMU Serif, Normal';font-variant-ligatures:normal;font-variant-caps:normal;font-variant-numeric:normal;font-variant-east-asian:normal;fill:#640000;fill-opacity:1;stroke:none;stroke-width:0.264583"
       x="64.410126"
       y="68.199501"
       id="text1032"><tspan
         sodipodi:role="line"
         id="tspan1030"
         x="64.410126"
         y="68.199501"
         style="font-style:normal;font-variant:normal;font-weight:normal;font-stretch:normal;font-size:5.43248px;font-family:'CMU Serif';-inkscape-font-specification:'CMU Serif, Normal';font-variant-ligatures:normal;font-variant-caps:normal;font-variant-numeric:normal;font-variant-east-asian:normal;fill:#640000;fill-opacity:1;stroke-width:0.264583">Equilateral</tspan></text>
    <g
       inkscape:label=""
       transform="matrix(0.46815316,0,0,0.46815316,31.310969,22.465368)"
       id="g1225"
       style="stroke-width:2.13605">
      <g
         id="g5524"
         style="stroke-width:2.13605">
        <g
           style="fill:#000000;fill-opacity:1;stroke-width:2.13605"
           id="g4269">
          <use
             xlink:href="#symbol637"
             x="91.925003"
             y="81.962997"
             id="use927"
             width="100%"
             height="100%"
             style="stroke-width:2.13605" />
        </g>
        <g
           style="fill:#000000;fill-opacity:1;stroke-width:2.13605"
           id="g5943">
          <use
             xlink:href="#symbol1207"
             x="97.112"
             y="83.457001"
             id="use8149"
             width="100%"
             height="100%"
             style="stroke-width:2.13605" />
        </g>
      </g>
    </g>
    <g
       inkscape:label=""
       transform="matrix(0.57853183,0,0,0.57853183,-42.786722,29.221532)"
       id="g1347"
       style="stroke-width:1.72851">
      <g
         id="g5622"
         style="stroke-width:1.72851">
        <g
           style="fill:#000000;fill-opacity:1;stroke-width:1.72851"
           id="g1953">
          <use
             xlink:href="#symbol678"
             x="91.925003"
             y="81.962997"
             id="use4878"
             width="100%"
             height="100%"
             style="stroke-width:1.72851" />
        </g>
        <g
           style="fill:#000000;fill-opacity:1;stroke-width:1.72851"
           id="g5948">
          <use
             xlink:href="#symbol1540"
             x="97.112"
             y="83.457001"
             id="use5659"
             width="100%"
             height="100%"
             style="stroke-width:1.72851" />
        </g>
        <g
           style="fill:#000000;fill-opacity:1;stroke-width:1.72851"
           id="g6210">
          <use
             xlink:href="#symbol1313"
             x="104.349"
             y="81.962997"
             id="use9978"
             width="100%"
             height="100%"
             style="stroke-width:1.72851" />
        </g>
        <g
           style="fill:#000000;fill-opacity:1;stroke-width:1.72851"
           id="g1448">
          <use
             xlink:href="#symbol678"
             x="114.865"
             y="81.962997"
             id="use1319"
             width="100%"
             height="100%"
             style="stroke-width:1.72851" />
        </g>
        <g
           style="fill:#000000;fill-opacity:1;stroke-width:1.72851"
           id="g1434">
          <use
             xlink:href="#symbol9708"
             x="120.051"
             y="83.457001"
             id="use4325"
             width="100%"
             height="100%"
             style="stroke-width:1.72851" />
        </g>
        <g
           style="fill:#000000;fill-opacity:1;stroke-width:1.72851"
           id="g7486">
          <use
             xlink:href="#symbol418"
             x="127.288"
             y="81.962997"
             id="use5047"
             width="100%"
             height="100%"
             style="stroke-width:1.72851" />
        </g>
        <g
           style="fill:#000000;fill-opacity:1;stroke-width:1.72851"
           id="g9769">
          <use
             xlink:href="#symbol678"
             x="140.01801"
             y="81.962997"
             id="use5813"
             width="100%"
             height="100%"
             style="stroke-width:1.72851" />
        </g>
        <g
           style="fill:#000000;fill-opacity:1;stroke-width:1.72851"
           id="g6401">
          <use
             xlink:href="#symbol3049"
             x="145.205"
             y="83.457001"
             id="use4783"
             width="100%"
             height="100%"
             style="stroke-width:1.72851" />
        </g>
      </g>
    </g>
    <g
       inkscape:label=""
       transform="matrix(0.57853183,0,0,0.57853183,8.8390282,29.221532)"
       id="g1526"
       style="stroke-width:1.72851">
      <g
         id="g1523"
         style="stroke-width:1.72851">
        <g
           style="fill:#000000;fill-opacity:1;stroke-width:1.72851"
           id="g725">
          <use
             xlink:href="#symbol8484"
             x="91.925003"
             y="81.962997"
             id="use9457"
             width="100%"
             height="100%"
             style="stroke-width:1.72851" />
        </g>
        <g
           style="fill:#000000;fill-opacity:1;stroke-width:1.72851"
           id="g7293">
          <use
             xlink:href="#symbol590"
             x="97.112"
             y="83.457001"
             id="use778"
             width="100%"
             height="100%"
             style="stroke-width:1.72851" />
        </g>
        <g
           style="fill:#000000;fill-opacity:1;stroke-width:1.72851"
           id="g2489">
          <use
             xlink:href="#symbol5512"
             x="104.349"
             y="81.962997"
             id="use7290"
             width="100%"
             height="100%"
             style="stroke-width:1.72851" />
        </g>
        <g
           style="fill:#000000;fill-opacity:1;stroke-width:1.72851"
           id="g3336">
          <use
             xlink:href="#symbol8484"
             x="114.865"
             y="81.962997"
             id="use902"
             width="100%"
             height="100%"
             style="stroke-width:1.72851" />
        </g>
        <g
           style="fill:#000000;fill-opacity:1;stroke-width:1.72851"
           id="g6495">
          <use
             xlink:href="#symbol9744"
             x="120.051"
             y="83.457001"
             id="use835"
             width="100%"
             height="100%"
             style="stroke-width:1.72851" />
        </g>
        <g
           style="fill:#000000;fill-opacity:1;stroke-width:1.72851"
           id="g5523">
          <use
             xlink:href="#symbol5512"
             x="127.288"
             y="81.962997"
             id="use6289"
             width="100%"
             height="100%"
             style="stroke-width:1.72851" />
        </g>
        <g
           style="fill:#000000;fill-opacity:1;stroke-width:1.72851"
           id="g9393">
          <use
             xlink:href="#symbol8484"
             x="137.804"
             y="81.962997"
             id="use3387"
             width="100%"
             height="100%"
             style="stroke-width:1.72851" />
        </g>
        <g
           style="fill:#000000;fill-opacity:1;stroke-width:1.72851"
           id="g4868">
          <use
             xlink:href="#symbol5134"
             x="142.991"
             y="83.457001"
             id="use942"
             width="100%"
             height="100%"
             style="stroke-width:1.72851" />
        </g>
      </g>
    </g>
    <g
       inkscape:label=""
       transform="matrix(0.57853183,0,0,0.57853183,60.946358,29.221532)"
       id="g1742"
       style="stroke-width:1.72851">
      <g
         id="g5690"
         style="stroke-width:1.72851">
        <g
           style="fill:#000000;fill-opacity:1;stroke-width:1.72851"
           id="g4608">
          <use
             xlink:href="#symbol2132"
             x="91.925003"
             y="81.962997"
             id="use850"
             width="100%"
             height="100%"
             style="stroke-width:1.72851" />
        </g>
        <g
           style="fill:#000000;fill-opacity:1;stroke-width:1.72851"
           id="g9968">
          <use
             xlink:href="#symbol8404"
             x="97.112"
             y="83.457001"
             id="use874"
             width="100%"
             height="100%"
             style="stroke-width:1.72851" />
        </g>
        <g
           style="fill:#000000;fill-opacity:1;stroke-width:1.72851"
           id="g5554">
          <use
             xlink:href="#symbol1097"
             x="103.795"
             y="81.962997"
             id="use7057"
             width="100%"
             height="100%"
             style="stroke-width:1.72851" />
        </g>
        <g
           style="fill:#000000;fill-opacity:1;stroke-width:1.72851"
           id="g1910">
          <use
             xlink:href="#symbol2132"
             x="113.758"
             y="81.962997"
             id="use211"
             width="100%"
             height="100%"
             style="stroke-width:1.72851" />
        </g>
        <g
           style="fill:#000000;fill-opacity:1;stroke-width:1.72851"
           id="g404">
          <use
             xlink:href="#symbol3852"
             x="118.944"
             y="83.457001"
             id="use2928"
             width="100%"
             height="100%"
             style="stroke-width:1.72851" />
        </g>
        <g
           style="fill:#000000;fill-opacity:1;stroke-width:1.72851"
           id="g3731">
          <use
             xlink:href="#symbol3462"
             x="126.181"
             y="81.962997"
             id="use601"
             width="100%"
             height="100%"
             style="stroke-width:1.72851" />
        </g>
        <g
           style="fill:#000000;fill-opacity:1;stroke-width:1.72851"
           id="g8527">
          <use
             xlink:href="#symbol2132"
             x="136.69701"
             y="81.962997"
             id="use398"
             width="100%"
             height="100%"
             style="stroke-width:1.72851" />
        </g>
        <g
           style="fill:#000000;fill-opacity:1;stroke-width:1.72851"
           id="g6762">
          <use
             xlink:href="#symbol1220"
             x="141.884"
             y="83.457001"
             id="use4808"
             width="100%"
             height="100%"
             style="stroke-width:1.72851" />
        </g>
      </g>
    </g>
    <g
       inkscape:label=""
       transform="matrix(0.46815316,0,0,0.46815316,-27.861224,2.4326302)"
       id="g1831"
       style="stroke-width:2.13605">
      <g
         id="g1829"
         style="stroke-width:2.13605">
        <g
           style="fill:#000000;fill-opacity:1;stroke-width:2.13605"
           id="g1823">
          <use
             xlink:href="#symbol2349"
             x="91.925003"
             y="81.962997"
             id="use1821"
             width="100%"
             height="100%"
             style="stroke-width:2.13605" />
        </g>
        <g
           style="fill:#000000;fill-opacity:1;stroke-width:2.13605"
           id="g1827">
          <use
             xlink:href="#symbol3717"
             x="97.112"
             y="83.457001"
             id="use1825"
             width="100%"
             height="100%"
             style="stroke-width:2.13605" />
        </g>
      </g>
    </g>
    <g
       inkscape:label=""
       transform="matrix(0.46815316,0,0,0.46815316,-12.3642,2.4326302)"
       id="g1843"
       style="stroke-width:2.13605">
      <g
         id="g1841"
         style="stroke-width:2.13605">
        <g
           style="fill:#000000;fill-opacity:1;stroke-width:2.13605"
           id="g1835">
          <use
             xlink:href="#symbol5783"
             x="91.925003"
             y="81.962997"
             id="use1833"
             width="100%"
             height="100%"
             style="stroke-width:2.13605" />
        </g>
        <g
           style="fill:#000000;fill-opacity:1;stroke-width:2.13605"
           id="g1839">
          <use
             xlink:href="#symbol1761"
             x="97.112"
             y="83.457001"
             id="use1837"
             width="100%"
             height="100%"
             style="stroke-width:2.13605" />
        </g>
      </g>
    </g>
    <g
       inkscape:label=""
       transform="matrix(0.46815316,0,0,0.46815316,-20.018218,22.465368)"
       id="g1855"
       style="stroke-width:2.13605">
      <g
         id="g1853"
         style="stroke-width:2.13605">
        <g
           style="fill:#000000;fill-opacity:1;stroke-width:2.13605"
           id="g1847">
          <use
             xlink:href="#symbol637"
             x="91.925003"
             y="81.962997"
             id="use1845"
             width="100%"
             height="100%"
             style="stroke-width:2.13605" />
        </g>
        <g
           style="fill:#000000;fill-opacity:1;stroke-width:2.13605"
           id="g1851">
          <use
             xlink:href="#symbol1207"
             x="97.112"
             y="83.457001"
             id="use1849"
             width="100%"
             height="100%"
             style="stroke-width:2.13605" />
        </g>
      </g>
    </g>
    <g
       inkscape:label=""
       transform="matrix(0.46815316,0,0,0.46815316,82.640168,22.465368)"
       id="g1867"
       style="stroke-width:2.13605">
      <g
         id="g1865"
         style="stroke-width:2.13605">
        <g
           style="fill:#000000;fill-opacity:1;stroke-width:2.13605"
           id="g1859">
          <use
             xlink:href="#symbol637"
             x="91.925003"
             y="81.962997"
             id="use1857"
             width="100%"
             height="100%"
             style="stroke-width:2.13605" />
        </g>
        <g
           style="fill:#000000;fill-opacity:1;stroke-width:2.13605"
           id="g1863">
          <use
             xlink:href="#symbol1207"
             x="97.112"
             y="83.457001"
             id="use1861"
             width="100%"
             height="100%"
             style="stroke-width:2.13605" />
        </g>
      </g>
    </g>
    <g
       inkscape:label=""
       transform="matrix(0.46815316,0,0,0.46815316,21.445789,8.3479579)"
       id="g1879"
       style="stroke-width:2.13605">
      <g
         id="g1877"
         style="stroke-width:2.13605">
        <g
           style="fill:#000000;fill-opacity:1;stroke-width:2.13605"
           id="g1871">
          <use
             xlink:href="#symbol2349"
             x="91.925003"
             y="81.962997"
             id="use1869"
             width="100%"
             height="100%"
             style="stroke-width:2.13605" />
        </g>
        <g
           style="fill:#000000;fill-opacity:1;stroke-width:2.13605"
           id="g1875">
          <use
             xlink:href="#symbol3717"
             x="97.112"
             y="83.457001"
             id="use1873"
             width="100%"
             height="100%"
             style="stroke-width:2.13605" />
        </g>
      </g>
    </g>
    <g
       inkscape:label=""
       transform="matrix(0.46815316,0,0,0.46815316,40.646982,8.3479579)"
       id="g1891"
       style="stroke-width:2.13605">
      <g
         id="g1889"
         style="stroke-width:2.13605">
        <g
           style="fill:#000000;fill-opacity:1;stroke-width:2.13605"
           id="g1883">
          <use
             xlink:href="#symbol5783"
             x="91.925003"
             y="81.962997"
             id="use1881"
             width="100%"
             height="100%"
             style="stroke-width:2.13605" />
        </g>
        <g
           style="fill:#000000;fill-opacity:1;stroke-width:2.13605"
           id="g1887">
          <use
             xlink:href="#symbol1761"
             x="97.112"
             y="83.457001"
             id="use1885"
             width="100%"
             height="100%"
             style="stroke-width:2.13605" />
        </g>
      </g>
    </g>
    <g
       inkscape:label=""
       transform="matrix(0.46815316,0,0,0.46815316,73.05847,11.957632)"
       id="g1903"
       style="stroke-width:2.13605">
      <g
         id="g1901"
         style="stroke-width:2.13605">
        <g
           style="fill:#000000;fill-opacity:1;stroke-width:2.13605"
           id="g1895">
          <use
             xlink:href="#symbol2349"
             x="91.925003"
             y="81.962997"
             id="use1893"
             width="100%"
             height="100%"
             style="stroke-width:2.13605" />
        </g>
        <g
           style="fill:#000000;fill-opacity:1;stroke-width:2.13605"
           id="g1899">
          <use
             xlink:href="#symbol3717"
             x="97.112"
             y="83.457001"
             id="use1897"
             width="100%"
             height="100%"
             style="stroke-width:2.13605" />
        </g>
      </g>
    </g>
    <g
       inkscape:label=""
       transform="matrix(0.46815316,0,0,0.46815316,91.730496,11.957632)"
       id="g1915"
       style="stroke-width:2.13605">
      <g
         id="g1913"
         style="stroke-width:2.13605">
        <g
           style="fill:#000000;fill-opacity:1;stroke-width:2.13605"
           id="g1907">
          <use
             xlink:href="#symbol5783"
             x="91.925003"
             y="81.962997"
             id="use1905"
             width="100%"
             height="100%"
             style="stroke-width:2.13605" />
        </g>
        <g
           style="fill:#000000;fill-opacity:1;stroke-width:2.13605"
           id="g1911">
          <use
             xlink:href="#symbol1761"
             x="97.112"
             y="83.457001"
             id="use1909"
             width="100%"
             height="100%"
             style="stroke-width:2.13605" />
        </g>
      </g>
    </g>
  </g>
</svg>
